<svg width="20" height="20" viewBox="0 0 20 20" fill="none" xmlns="http://www.w3.org/2000/svg">
<path d="M14.166 11.1666V13.6666C14.166 16.9999 12.8327 18.3333 9.49935 18.3333H6.33268C2.99935 18.3333 1.66602 16.9999 1.66602 13.6666V10.4999C1.66602 7.16659 2.99935 5.83325 6.33268 5.83325H8.83268" stroke="#00AFEF" stroke-width="1.5" stroke-linecap="round" stroke-linejoin="round"/>
<path d="M14.1673 11.1666H11.5007C9.50065 11.1666 8.83398 10.4999 8.83398 8.49992V5.83325L14.1673 11.1666Z" stroke="#00AFEF" stroke-width="1.5" stroke-linecap="round" stroke-linejoin="round"/>
<path d="M9.66602 1.66675H12.9993" stroke="#00AFEF" stroke-width="1.5" stroke-linecap="round" stroke-linejoin="round"/>
<path d="M5.83398 4.16675C5.83398 2.78341 6.95065 1.66675 8.33399 1.66675H10.5173" stroke="#00AFEF" stroke-width="1.5" stroke-linecap="round" stroke-linejoin="round"/>
<path d="M18.3339 6.66675V11.8251C18.3339 13.1167 17.2839 14.1667 15.9922 14.1667" stroke="#00AFEF" stroke-width="1.5" stroke-linecap="round" stroke-linejoin="round"/>
<path d="M18.334 6.66675H15.834C13.959 6.66675 13.334 6.04175 13.334 4.16675V1.66675L18.334 6.66675Z" stroke="#00AFEF" stroke-width="1.5" stroke-linecap="round" stroke-linejoin="round"/>
</svg>
