<svg width="43" height="43" viewBox="0 0 43 43" fill="none" xmlns="http://www.w3.org/2000/svg">
<circle cx="21.5" cy="21.5" r="21.5" fill="white"/>
<g clip-path="url(#clip0_1283_9191)">
<path d="M20.5 30C20.5 30 19 30 19 28.5C19 27 20.5 22.5 26.5 22.5C32.5 22.5 34 27 34 28.5C34 30 32.5 30 32.5 30H20.5ZM26.5 21C27.6935 21 28.8381 20.5259 29.682 19.682C30.5259 18.8381 31 17.6935 31 16.5C31 15.3065 30.5259 14.1619 29.682 13.318C28.8381 12.4741 27.6935 12 26.5 12C25.3065 12 24.1619 12.4741 23.318 13.318C22.4741 14.1619 22 15.3065 22 16.5C22 17.6935 22.4741 18.8381 23.318 19.682C24.1619 20.5259 25.3065 21 26.5 21ZM17.824 30C17.6016 29.5317 17.4907 29.0183 17.5 28.5C17.5 26.4675 18.52 24.375 20.404 22.92C19.4636 22.6303 18.4839 22.4886 17.5 22.5C11.5 22.5 10 27 10 28.5C10 30 11.5 30 11.5 30H17.824ZM16.75 21C17.7446 21 18.6984 20.6049 19.4017 19.9017C20.1049 19.1984 20.5 18.2446 20.5 17.25C20.5 16.2554 20.1049 15.3016 19.4017 14.5983C18.6984 13.8951 17.7446 13.5 16.75 13.5C15.7554 13.5 14.8016 13.8951 14.0983 14.5983C13.3951 15.3016 13 16.2554 13 17.25C13 18.2446 13.3951 19.1984 14.0983 19.9017C14.8016 20.6049 15.7554 21 16.75 21Z" fill="#7B61FF"/>
</g>
<defs>
<clipPath id="clip0_1283_9191">
<rect width="24" height="24" fill="white" transform="translate(10 9)"/>
</clipPath>
</defs>
</svg>
