<svg width="18" height="17" viewBox="0 0 18 17" fill="none" xmlns="http://www.w3.org/2000/svg">
<path d="M8.93703 5.52443C7.41508 5.52443 6.17305 6.76645 6.17305 8.2884C6.17305 9.81036 7.41508 11.0524 8.93703 11.0524C10.459 11.0524 11.701 9.81036 11.701 8.2884C11.701 6.76645 10.459 5.52443 8.93703 5.52443ZM17.2269 8.2884C17.2269 7.14383 17.2373 6.00963 17.173 4.86713C17.1087 3.54008 16.806 2.36234 15.8356 1.39194C14.8631 0.419464 13.6874 0.118806 12.3604 0.0545278C11.2158 -0.00975079 10.0816 0.000616751 8.9391 0.000616751C7.79453 0.000616751 6.66032 -0.00975079 5.51782 0.0545278C4.19078 0.118806 3.01303 0.421538 2.04263 1.39194C1.07016 2.36441 0.769502 3.54008 0.705224 4.86713C0.640945 6.0117 0.651313 7.14591 0.651313 8.2884C0.651313 9.4309 0.640945 10.5672 0.705224 11.7097C0.769502 13.0367 1.07223 14.2145 2.04263 15.1849C3.01511 16.1573 4.19078 16.458 5.51782 16.5223C6.6624 16.5866 7.7966 16.5762 8.9391 16.5762C10.0837 16.5762 11.2179 16.5866 12.3604 16.5223C13.6874 16.458 14.8652 16.1553 15.8356 15.1849C16.808 14.2124 17.1087 13.0367 17.173 11.7097C17.2393 10.5672 17.2269 9.43298 17.2269 8.2884ZM8.93703 12.5412C6.5836 12.5412 4.68427 10.6418 4.68427 8.2884C4.68427 5.93498 6.5836 4.03565 8.93703 4.03565C11.2905 4.03565 13.1898 5.93498 13.1898 8.2884C13.1898 10.6418 11.2905 12.5412 8.93703 12.5412ZM13.364 4.85468C12.8145 4.85468 12.3707 4.41096 12.3707 3.86148C12.3707 3.312 12.8145 2.86827 13.364 2.86827C13.9134 2.86827 14.3572 3.312 14.3572 3.86148C14.3573 3.99195 14.3317 4.12118 14.2819 4.24176C14.232 4.36233 14.1589 4.47189 14.0666 4.56415C13.9744 4.65641 13.8648 4.72956 13.7442 4.77942C13.6237 4.82927 13.4944 4.85485 13.364 4.85468Z" fill="white"/>
</svg>
