<svg width="17" height="17" viewBox="0 0 17 17" fill="none" xmlns="http://www.w3.org/2000/svg">
<path fill-rule="evenodd" clip-rule="evenodd" d="M0.423248 1.38492C0.423248 1.01762 0.569159 0.665357 0.828881 0.405635C1.0886 0.145912 1.44086 1.84629e-06 1.80817 1.84629e-06H15.6136C15.7957 -0.000295445 15.976 0.0353126 16.1442 0.104787C16.3124 0.174262 16.4653 0.276239 16.5941 0.40488C16.7229 0.533521 16.825 0.686299 16.8947 0.854468C16.9644 1.02264 17.0002 1.20289 17.0001 1.38492V15.1904C17.0003 15.3724 16.9646 15.5528 16.895 15.721C16.8254 15.8893 16.7234 16.0421 16.5947 16.1709C16.466 16.2997 16.3132 16.4018 16.1449 16.4715C15.9767 16.5411 15.7964 16.5769 15.6144 16.5768H1.80817C1.62623 16.5768 1.44608 16.541 1.27801 16.4713C1.10993 16.4017 0.957226 16.2996 0.828615 16.1709C0.700003 16.0422 0.598007 15.8895 0.528453 15.7214C0.458898 15.5532 0.42315 15.3731 0.423248 15.1911V1.38492ZM6.98465 6.32029H9.2293V7.44751C9.5533 6.79951 10.3821 6.2163 11.6277 6.2163C14.0155 6.2163 14.5813 7.50704 14.5813 9.87526V14.2621H12.1649V10.4148C12.1649 9.06601 11.8409 8.30498 11.0181 8.30498C9.87655 8.30498 9.40185 9.12553 9.40185 10.4148V14.2621H6.98465V6.32029ZM2.84045 14.1589H5.25765V6.2163H2.84045V14.1581V14.1589ZM5.6035 3.6258C5.60806 3.83276 5.57123 4.03855 5.49518 4.23109C5.41913 4.42363 5.30538 4.59904 5.16062 4.74702C5.01586 4.895 4.843 5.01258 4.65218 5.09285C4.46137 5.17313 4.25644 5.21448 4.04943 5.21448C3.84241 5.21448 3.63748 5.17313 3.44667 5.09285C3.25585 5.01258 3.08299 4.895 2.93823 4.74702C2.79347 4.59904 2.67972 4.42363 2.60367 4.23109C2.52762 4.03855 2.49079 3.83276 2.49535 3.6258C2.5043 3.21956 2.67196 2.83297 2.96243 2.54883C3.2529 2.26468 3.64309 2.10557 4.04943 2.10557C4.45577 2.10557 4.84595 2.26468 5.13642 2.54883C5.42689 2.83297 5.59455 3.21956 5.6035 3.6258Z" fill="white"/>
</svg>
