<svg width="232" height="106" viewBox="0 0 232 106" fill="none" xmlns="http://www.w3.org/2000/svg">
<path d="M70.8305 74H59.595C59.0206 74 58.6531 73.7946 58.2476 73.4282L53.1864 69.0278C52.3412 68.2655 50.6055 68.2655 49.7604 69.0278L44.8821 73.4282C44.4759 73.7946 43.7431 74 43.1688 74C41.2404 74 40.2747 71.8968 41.6384 70.6673L52.0808 61.2478C55.4034 58.2507 58.5958 58.2507 61.9184 61.2478L72.3616 70.6673C73.7253 71.8975 72.7596 74 70.8312 74H70.8305Z" fill="white"/>
<path d="M70.8305 74H59.961C59.3867 74 58.6539 73.7946 58.2476 73.4282L53.1864 69.0278C52.3412 68.2655 50.6055 68.2655 49.7604 69.0278L44.8821 73.4282C44.4759 73.7946 43.7431 74 43.1688 74C41.2404 74 40.2747 71.8968 41.6384 70.6673L52.0808 61.2478C55.4034 58.2507 58.5958 58.2507 61.9184 61.2478L72.3616 70.6673C73.7253 71.8975 72.7596 74 70.8312 74H70.8305Z" fill="white"/>
<path d="M59.1662 32H70.0236C72.6733 32 73.9971 34.9843 72.1192 36.7236L37.0661 69.1893C35.1927 70.9245 32 69.6898 32 67.2301V57.281C32 56.5475 32.3126 55.845 32.8704 55.3259L57.0661 32.8093C57.6231 32.2909 58.3787 32 59.1662 32Z" fill="white"/>
<path d="M34.8284 32H46.3987C48.734 32 49.8819 34.5718 48.2012 36.0385L36.3988 46.3367C34.7318 47.791 31.9534 46.6934 32.0006 44.5988L32.2328 34.3005C32.2617 33.0225 33.4149 32 34.8284 32Z" fill="white"/>
<path d="M87.9329 39H92.2869C92.802 39 93.219 39.3733 93.219 39.833V48.1481C93.219 48.9427 94.3445 49.2863 94.8884 48.6578L102.965 39.3233C103.142 39.1195 103.414 39 103.702 39H108.499C109.271 39 109.708 39.7884 109.242 40.3373L98.913 52.4826C98.6546 52.7864 98.6599 53.2089 98.9273 53.5073L109.794 65.6465C110.282 66.192 109.848 67 109.066 67H104.173C103.891 67 103.624 66.8859 103.447 66.6888L94.877 57.1687C94.3256 56.5558 93.2182 56.9048 93.2182 57.6912V66.167C93.2182 66.6274 92.8005 67 92.2861 67H87.9321C87.417 67 87 66.6267 87 66.167V39.8337C87 39.3733 87.4177 39.0007 87.9321 39.0007L87.9329 39Z" fill="white"/>
<path d="M112 57.4778C112 51.3327 116.455 47 122.556 47C125.259 47 127.289 47.8598 128.776 49.3035C128.838 49.3631 128.948 49.3222 128.948 49.2405V48.1646C128.948 47.6921 129.367 47.3097 129.884 47.3097H134.064C134.581 47.3097 135 47.6928 135 48.1646V66.7911C135 67.2636 134.58 67.646 134.064 67.646H129.884C129.366 67.646 128.948 67.2629 128.948 66.7911V65.7595C128.948 65.6771 128.838 65.6362 128.776 65.6965C127.29 67.1402 125.259 68 122.556 68C116.455 68 112 63.5349 112 57.4785V57.4778ZM128.946 57.6212C129.006 54.9297 127.384 52.8306 124.762 52.302C121.098 51.5634 117.736 54.2827 117.863 57.7065C117.961 60.3578 119.767 62.3634 122.517 62.7244C125.891 63.1671 128.876 60.7319 128.945 57.6212H128.946Z" fill="white"/>
<path d="M138.91 47H143.019C143.394 47 143.731 47.2133 143.866 47.5362L148.115 57.6514C148.414 58.364 149.504 58.3674 149.808 57.6561L154.136 47.5321C154.273 47.2112 154.608 47 154.982 47H159.09C159.732 47 160.172 47.5996 159.935 48.1515L152.052 66.4699C151.915 66.7902 151.58 67 151.207 67H146.706C146.333 67 145.997 66.7888 145.86 66.4672L138.064 48.1487C137.829 47.5969 138.269 47 138.91 47Z" fill="white"/>
<path d="M163.921 39H168.079C168.588 39 169.001 39.374 169 39.8344L168.955 66.1683C168.954 66.628 168.542 67 168.034 67H163.921C163.412 67 163 66.6267 163 66.167V39.833C163 39.3726 163.413 39 163.921 39Z" fill="white"/>
<path d="M172.944 47.2457H177.155C177.676 47.2457 178.098 47.6178 178.098 48.0761V48.49C178.098 49.2195 179.084 49.5889 179.69 49.0923C181.208 47.8487 183.064 47.1973 184.955 47.0055C185.512 46.9489 186 47.3379 186 47.8318V51.1744C186 51.6118 185.615 51.9738 185.12 52.0028C182.571 52.1522 178.097 52.959 178.097 57.9395V66.1696C178.097 66.6285 177.674 67 177.154 67H172.943C172.422 67 172 66.6279 172 66.1696V48.0768C172 47.6178 172.423 47.2464 172.943 47.2464L172.944 47.2457Z" fill="white"/>
<path d="M194.5 67C197.538 67 200 64.7614 200 62C200 59.2386 197.538 57 194.5 57C191.462 57 189 59.2386 189 62C189 64.7614 191.462 67 194.5 67Z" fill="white"/>
</svg>
