<svg width="20" height="21" viewBox="0 0 20 21" fill="none" xmlns="http://www.w3.org/2000/svg">
<path d="M10.133 9.5858C10.0496 9.57746 9.94962 9.57746 9.85796 9.5858C7.87462 9.51913 6.29962 7.89413 6.29962 5.89413C6.29962 3.85246 7.94962 2.19413 9.99962 2.19413C12.0413 2.19413 13.6996 3.85246 13.6996 5.89413C13.6913 7.89413 12.1163 9.51913 10.133 9.5858Z" stroke="#292D32" stroke-linecap="round" stroke-linejoin="round"/>
<path d="M5.96642 12.6608C3.94975 14.0108 3.94975 16.2108 5.96642 17.5525C8.25809 19.0858 12.0164 19.0858 14.3081 17.5525C16.3248 16.2025 16.3248 14.0025 14.3081 12.6608C12.0248 11.1358 8.26642 11.1358 5.96642 12.6608Z" stroke="#292D32" stroke-linecap="round" stroke-linejoin="round"/>
</svg>
