<svg width="43" height="43" viewBox="0 0 43 43" fill="none" xmlns="http://www.w3.org/2000/svg">
<circle cx="21.5" cy="21.5" r="21.5" fill="white"/>
<g clip-path="url(#clip0_1283_9150)">
<path d="M14.3008 16.5C14.3008 15.3065 14.7645 14.1619 15.5898 13.318C16.4152 12.4741 17.5346 12 18.7018 12C19.869 12 20.9885 12.4741 21.8138 13.318C22.6392 14.1619 23.1028 15.3065 23.1028 16.5C23.1028 17.6935 22.6392 18.8381 21.8138 19.682C20.9885 20.5259 19.869 21 18.7018 21C17.5346 21 16.4152 20.5259 15.5898 19.682C14.7645 18.8381 14.3008 17.6935 14.3008 16.5ZM11 28.9559C11 25.493 13.7438 22.6875 17.1305 22.6875H20.2731C23.6598 22.6875 26.4036 25.493 26.4036 28.9559C26.4036 29.5324 25.9463 30 25.3824 30H12.0212C11.4573 30 11 29.5324 11 28.9559ZM27.1944 17.0273C27.5176 16.6969 28.0402 16.6969 28.36 17.0273L29.976 18.6797L31.592 17.0273C31.9152 16.6969 32.4378 16.6969 32.7576 17.0273C33.0774 17.3578 33.0808 17.8922 32.7576 18.2191L31.1416 19.8715L32.7576 21.5238C33.0808 21.8543 33.0808 22.3887 32.7576 22.7156C32.4344 23.0426 31.9118 23.0461 31.592 22.7156L29.976 21.0633L28.36 22.7156C28.0368 23.0461 27.5142 23.0461 27.1944 22.7156C26.8747 22.3852 26.8712 21.8508 27.1944 21.5238L28.8104 19.8715L27.1944 18.2191C26.8712 17.8887 26.8712 17.3543 27.1944 17.0273Z" fill="#F50C40"/>
</g>
<defs>
<clipPath id="clip0_1283_9150">
<rect width="24" height="24" fill="white" transform="translate(10 9)"/>
</clipPath>
</defs>
</svg>
