<svg width="40" height="40" viewBox="0 0 40 40" fill="none" xmlns="http://www.w3.org/2000/svg">
<rect width="40" height="40" rx="5" fill="#D7D7D7" fill-opacity="0.15"/>
<path d="M20 21.9775C21.0922 21.9775 21.9775 21.0922 21.9775 20C21.9775 18.9079 21.0922 18.0225 20 18.0225C18.9079 18.0225 18.0225 18.9079 18.0225 20C18.0225 21.0922 18.9079 21.9775 20 21.9775Z" stroke="#292D32" stroke-miterlimit="10" stroke-linecap="round" stroke-linejoin="round"/>
<path d="M13.4084 20.5801V19.4199C13.4084 18.7344 13.9687 18.1675 14.6608 18.1675C15.8539 18.1675 16.3417 17.3238 15.7418 16.2889C15.3991 15.6956 15.6034 14.9244 16.2033 14.5817L17.3436 13.9291C17.8644 13.6193 18.5367 13.8038 18.8465 14.3246L18.919 14.4498C19.5123 15.4847 20.4878 15.4847 21.0877 14.4498L21.1602 14.3246C21.47 13.8038 22.1423 13.6193 22.6631 13.9291L23.8034 14.5817C24.4033 14.9244 24.6076 15.6956 24.2649 16.2889C23.665 17.3238 24.1528 18.1675 25.3459 18.1675C26.0314 18.1675 26.5983 18.7278 26.5983 19.4199V20.5801C26.5983 21.2656 26.038 21.8325 25.3459 21.8325C24.1528 21.8325 23.665 22.6762 24.2649 23.7111C24.6076 24.311 24.4033 25.0756 23.8034 25.4184L22.6631 26.0709C22.1423 26.3807 21.47 26.1962 21.1602 25.6754L21.0877 25.5502C20.4944 24.5153 19.5189 24.5153 18.919 25.5502L18.8465 25.6754C18.5367 26.1962 17.8644 26.3807 17.3436 26.0709L16.2033 25.4184C15.6034 25.0756 15.3991 24.3044 15.7418 23.7111C16.3417 22.6762 15.8539 21.8325 14.6608 21.8325C13.9687 21.8325 13.4084 21.2656 13.4084 20.5801Z" stroke="#292D32" stroke-miterlimit="10" stroke-linecap="round" stroke-linejoin="round"/>
</svg>
