<svg width="14" height="14" viewBox="0 0 14 14" fill="none" xmlns="http://www.w3.org/2000/svg">
<path d="M7.22039 8.47501C8.15651 8.47501 8.91539 7.71613 8.91539 6.78001C8.91539 5.84388 8.15651 5.08501 7.22039 5.08501C6.28427 5.08501 5.52539 5.84388 5.52539 6.78001C5.52539 7.71613 6.28427 8.47501 7.22039 8.47501Z" stroke="#00AFEF" stroke-width="1.5" stroke-miterlimit="10" stroke-linecap="round" stroke-linejoin="round"/>
<path d="M1.57031 7.2772V6.2828C1.57031 5.6952 2.05056 5.2093 2.64381 5.2093C3.66646 5.2093 4.08456 4.4861 3.57041 3.59905C3.27661 3.09055 3.45176 2.4295 3.96591 2.1357L4.94336 1.57635C5.38971 1.3108 5.96601 1.469 6.23156 1.91535L6.29371 2.0227C6.80221 2.90975 7.63841 2.90975 8.15256 2.0227L8.21471 1.91535C8.48026 1.469 9.05656 1.3108 9.50291 1.57635L10.4804 2.1357C10.9945 2.4295 11.1697 3.09055 10.8759 3.59905C10.3617 4.4861 10.7798 5.2093 11.8025 5.2093C12.3901 5.2093 12.876 5.68955 12.876 6.2828V7.2772C12.876 7.8648 12.3957 8.3507 11.8025 8.3507C10.7798 8.3507 10.3617 9.0739 10.8759 9.96095C11.1697 10.4751 10.9945 11.1305 10.4804 11.4243L9.50291 11.9837C9.05656 12.2492 8.48026 12.091 8.21471 11.6447L8.15256 11.5373C7.64406 10.6503 6.80786 10.6503 6.29371 11.5373L6.23156 11.6447C5.96601 12.091 5.38971 12.2492 4.94336 11.9837L3.96591 11.4243C3.45176 11.1305 3.27661 10.4694 3.57041 9.96095C4.08456 9.0739 3.66646 8.3507 2.64381 8.3507C2.05056 8.3507 1.57031 7.8648 1.57031 7.2772Z" stroke="#00AFEF" stroke-width="1.5" stroke-miterlimit="10" stroke-linecap="round" stroke-linejoin="round"/>
</svg>
