<svg width="12" height="12" viewBox="0 0 12 12" fill="none" xmlns="http://www.w3.org/2000/svg">
<path d="M9.39038 8.08556C8.96096 8.08556 8.57675 8.25506 8.28294 8.52062L4.25432 6.17578C4.28257 6.04582 4.30518 5.91587 4.30518 5.78026C4.30518 5.64466 4.28257 5.5147 4.25432 5.38475L8.23773 3.0625C8.54285 3.34502 8.94401 3.52017 9.39038 3.52017C10.3283 3.52017 11.0854 2.76304 11.0854 1.8251C11.0854 0.887166 10.3283 0.130035 9.39038 0.130035C8.45244 0.130035 7.69531 0.887166 7.69531 1.8251C7.69531 1.96071 7.71791 2.09066 7.74616 2.22062L3.76275 4.54286C3.45764 4.26035 3.05648 4.08519 2.61011 4.08519C1.67217 4.08519 0.915039 4.84233 0.915039 5.78026C0.915039 6.7182 1.67217 7.47533 2.61011 7.47533C3.05648 7.47533 3.45764 7.30017 3.76275 7.01766L7.78572 9.36816C7.75746 9.48681 7.74051 9.61112 7.74051 9.73542C7.74051 10.6451 8.48069 11.3853 9.39038 11.3853C10.3001 11.3853 11.0402 10.6451 11.0402 9.73542C11.0402 8.82574 10.3001 8.08556 9.39038 8.08556Z" fill="#00AFEF"/>
</svg>
