<svg width="40" height="40" viewBox="0 0 40 40" fill="none" xmlns="http://www.w3.org/2000/svg">
<rect width="40" height="40" rx="5" fill="#D7D7D7" fill-opacity="0.15"/>
<path d="M20.1055 19.2552C20.0396 19.2486 19.9605 19.2486 19.8879 19.2552C18.3191 19.2025 17.0733 17.9171 17.0733 16.3351C17.0733 14.7201 18.3785 13.4084 20 13.4084C21.615 13.4084 22.9267 14.7201 22.9267 16.3351C22.9201 17.9171 21.6743 19.2025 20.1055 19.2552Z" stroke="#292D32" stroke-linecap="round" stroke-linejoin="round"/>
<path d="M16.8097 21.6875C15.2145 22.7553 15.2145 24.4955 16.8097 25.5568C18.6224 26.7697 21.5952 26.7697 23.4079 25.5568C25.0031 24.4889 25.0031 22.7487 23.4079 21.6875C21.6018 20.4812 18.629 20.4812 16.8097 21.6875Z" stroke="#292D32" stroke-linecap="round" stroke-linejoin="round"/>
</svg>
