<svg width="16" height="16" viewBox="0 0 16 16" fill="none" xmlns="http://www.w3.org/2000/svg">
<path d="M12.8119 5.31059V8.70531C12.8119 10.7355 11.6518 11.6056 9.91157 11.6056H4.11749C3.82087 11.6056 3.53743 11.5793 3.27376 11.52C3.10897 11.4936 2.95077 11.4475 2.80576 11.3947C1.81701 11.0256 1.21716 10.1687 1.21716 8.70531V5.31059C1.21716 3.28035 2.37729 2.41028 4.11749 2.41028H9.91157C11.3881 2.41028 12.4494 3.03648 12.7328 4.46688C12.7789 4.73054 12.8119 5.00078 12.8119 5.31059Z" stroke="#292D32" stroke-miterlimit="10" stroke-linecap="round" stroke-linejoin="round"/>
<path d="M14.7901 7.28813V10.6829C14.7901 12.7131 13.63 13.5832 11.8898 13.5832H6.09571C5.60792 13.5832 5.16629 13.5173 4.78397 13.3723C3.99956 13.0822 3.46563 12.4824 3.27448 11.52C3.53814 11.5793 3.82158 11.6057 4.11821 11.6057H9.91229C11.6525 11.6057 12.8126 10.7356 12.8126 8.70536V5.31063C12.8126 5.00082 12.7863 4.72399 12.7335 4.46692C13.9859 4.73059 14.7901 5.61385 14.7901 7.28813Z" stroke="#292D32" stroke-miterlimit="10" stroke-linecap="round" stroke-linejoin="round"/>
<path d="M7.01023 8.75129C7.97132 8.75129 8.75044 7.97217 8.75044 7.01108C8.75044 6.05 7.97132 5.27087 7.01023 5.27087C6.04914 5.27087 5.27002 6.05 5.27002 7.01108C5.27002 7.97217 6.04914 8.75129 7.01023 8.75129Z" stroke="#292D32" stroke-miterlimit="10" stroke-linecap="round" stroke-linejoin="round"/>
<path d="M3.24084 5.56104V8.46138" stroke="#292D32" stroke-miterlimit="10" stroke-linecap="round" stroke-linejoin="round"/>
<path d="M10.7828 5.56128V8.46163" stroke="#292D32" stroke-miterlimit="10" stroke-linecap="round" stroke-linejoin="round"/>
</svg>
