<svg width="15" height="14" viewBox="0 0 15 14" fill="none" xmlns="http://www.w3.org/2000/svg">
<path d="M12.5255 3.37869C10.644 3.19224 8.75127 3.09619 6.86417 3.09619C5.74547 3.09619 4.62677 3.15269 3.50807 3.26569L2.35547 3.37869" stroke="#00AFEF" stroke-width="1.5" stroke-linecap="round" stroke-linejoin="round"/>
<path d="M5.46289 2.80805L5.58719 2.0679C5.67759 1.53115 5.74539 1.13 6.70024 1.13H8.18054C9.13539 1.13 9.20884 1.55375 9.29359 2.07355L9.41789 2.80805" stroke="#00AFEF" stroke-width="1.5" stroke-linecap="round" stroke-linejoin="round"/>
<path d="M11.3108 5.16409L10.9436 10.8536C10.8814 11.7407 10.8306 12.43 9.25421 12.43H5.62691C4.05056 12.43 3.99971 11.7407 3.93756 10.8536L3.57031 5.16409" stroke="#00AFEF" stroke-width="1.5" stroke-linecap="round" stroke-linejoin="round"/>
<path d="M6.49707 9.32249H8.37852" stroke="#00AFEF" stroke-width="1.5" stroke-linecap="round" stroke-linejoin="round"/>
<path d="M6.02734 7.0625H8.85234" stroke="#00AFEF" stroke-width="1.5" stroke-linecap="round" stroke-linejoin="round"/>
</svg>
