<svg width="17" height="14" viewBox="0 0 17 14" fill="none" xmlns="http://www.w3.org/2000/svg">
<path d="M16.4553 2.42636C15.8785 2.68192 15.259 2.8546 14.6076 2.93265C15.2797 2.53052 15.7825 1.89761 16.0222 1.15202C15.3908 1.52706 14.6997 1.79105 13.9791 1.93251C13.4945 1.41509 12.8526 1.07213 12.1531 0.956881C11.4536 0.841636 10.7356 0.960553 10.1107 1.29517C9.48566 1.62979 8.98863 2.16138 8.69673 2.80743C8.40482 3.45347 8.33437 4.17781 8.49632 4.86799C7.21693 4.80375 5.96534 4.47122 4.82278 3.89196C3.68022 3.31271 2.67222 2.49969 1.86421 1.50566C1.58793 1.98224 1.42907 2.5348 1.42907 3.12328C1.42876 3.65304 1.55922 4.17469 1.80887 4.64195C2.05852 5.1092 2.41965 5.5076 2.8602 5.80182C2.34928 5.78556 1.84962 5.6475 1.40283 5.39914V5.44058C1.40277 6.18359 1.65979 6.90374 2.13026 7.47883C2.60073 8.05392 3.25568 8.44853 3.98397 8.5957C3.51 8.72397 3.01308 8.74287 2.53074 8.65096C2.73622 9.29028 3.13648 9.84934 3.67548 10.2499C4.21449 10.6504 4.86525 10.8724 5.53667 10.8847C4.3969 11.7794 2.98929 12.2648 1.54028 12.2626C1.2836 12.2627 1.02714 12.2477 0.772217 12.2177C2.24305 13.1634 3.9552 13.6653 5.70382 13.6634C11.6231 13.6634 14.8591 8.76078 14.8591 4.50883C14.8591 4.37069 14.8556 4.23116 14.8494 4.09302C15.4788 3.63783 16.0221 3.07417 16.4539 2.42844L16.4553 2.42636Z" fill="white"/>
</svg>
