<svg width="43" height="43" viewBox="0 0 43 43" fill="none" xmlns="http://www.w3.org/2000/svg">
<circle cx="21.5" cy="21.5" r="21.5" fill="white"/>
<g clip-path="url(#clip0_1283_9211)">
<path d="M17.5 20.9982C19.0913 20.9982 20.6174 20.3662 21.7426 19.2411C22.8679 18.1161 23.5 16.5902 23.5 14.9991C23.5 13.4081 22.8679 11.8822 21.7426 10.7571C20.6174 9.63205 19.0913 9 17.5 9C15.9087 9 14.3826 9.63205 13.2574 10.7571C12.1321 11.8822 11.5 13.4081 11.5 14.9991C11.5 16.5902 12.1321 18.1161 13.2574 19.2411C14.3826 20.3662 15.9087 20.9982 17.5 20.9982ZM15.3578 23.2479C10.7406 23.2479 7 26.988 7 31.6045C7 32.3731 7.62344 32.9965 8.39219 32.9965H26.6078C26.6922 32.9965 26.7719 32.9871 26.8563 32.9731C23.2797 30.3906 22.1781 26.3646 22.0234 23.59C21.2688 23.3651 20.4719 23.2479 19.6469 23.2479H15.3578ZM29.8328 19.5781L24.2078 21.8278C23.7812 22.0012 23.5 22.4137 23.5 22.873C23.5 25.8397 24.7141 30.7843 29.8187 32.9121C30.0953 33.0293 30.4094 33.0293 30.6859 32.9121C35.7859 30.7843 37 25.8397 37 22.873C37 22.4137 36.7188 22.0012 36.2922 21.8278L30.6672 19.5781C30.4 19.4703 30.1 19.4703 29.8328 19.5781ZM34.7219 23.6229C34.5391 25.9991 33.4469 29.0924 30.25 30.639V21.8325L34.7219 23.6229Z" fill="#06C270"/>
</g>
<defs>
<clipPath id="clip0_1283_9211">
<rect width="30" height="24" fill="white" transform="translate(7 9)"/>
</clipPath>
</defs>
</svg>
