<svg width="50" height="50" viewBox="0 0 50 50" fill="none" xmlns="http://www.w3.org/2000/svg">
<rect x="0.200195" width="49.5993" height="49.5993" rx="24.7997" fill="#00AFEF" fill-opacity="0.08"/>
<path d="M30.9427 19.6847C30.6947 19.6434 30.4364 19.6331 30.1677 19.6331H19.8345C19.5452 19.6331 19.2662 19.6537 18.9976 19.6951C19.1422 19.4057 19.3489 19.1371 19.5969 18.8891L22.9552 15.5205C24.3708 14.1152 26.6648 14.1152 28.0804 15.5205L29.8887 17.3494C30.5501 18.0004 30.9014 18.8271 30.9427 19.6847Z" stroke="#00AFEF" stroke-width="1.96939" stroke-linecap="round" stroke-linejoin="round"/>
<path d="M21.8999 32.0329C21.8999 32.8079 21.6829 33.5416 21.3005 34.1616C20.5875 35.3602 19.2752 36.1662 17.7666 36.1662C16.2579 36.1662 14.9456 35.3602 14.2326 34.1616C13.8503 33.5416 13.6333 32.8079 13.6333 32.0329C13.6333 29.7493 15.4829 27.8997 17.7666 27.8997C20.0502 27.8997 21.8999 29.7493 21.8999 32.0329Z" stroke="#00AFEF" stroke-width="1.96939" stroke-miterlimit="10" stroke-linecap="round" stroke-linejoin="round"/>
<path d="M19.3078 32.0117H16.2285" stroke="#00AFEF" stroke-width="1.96939" stroke-miterlimit="10" stroke-linecap="round" stroke-linejoin="round"/>
<path d="M17.7666 30.5031V33.5927" stroke="#00AFEF" stroke-width="1.96939" stroke-miterlimit="10" stroke-linecap="round" stroke-linejoin="round"/>
<path d="M35.3329 24.7997V29.9663C35.3329 33.0662 33.2663 35.1329 30.1663 35.1329H20.4841C20.8044 34.8642 21.0834 34.5335 21.3004 34.1615C21.6827 33.5415 21.8997 32.8079 21.8997 32.0329C21.8997 29.7493 20.0501 27.8996 17.7665 27.8996C16.5265 27.8996 15.4208 28.4473 14.6665 29.3049V24.7997C14.6665 21.989 16.3611 20.0257 18.9961 19.6951C19.2648 19.6537 19.5438 19.6331 19.8331 19.6331H30.1663C30.435 19.6331 30.6933 19.6434 30.9413 19.6847C33.6073 19.9947 35.3329 21.9684 35.3329 24.7997Z" stroke="#00AFEF" stroke-width="1.96939" stroke-linecap="round" stroke-linejoin="round"/>
<path d="M35.3331 25.3163H32.2331C31.0965 25.3163 30.1665 26.2463 30.1665 27.383C30.1665 28.5196 31.0965 29.4496 32.2331 29.4496H35.3331" stroke="#00AFEF" stroke-width="1.96939" stroke-linecap="round" stroke-linejoin="round"/>
</svg>
