<svg width="50" height="50" viewBox="0 0 50 50" fill="none" xmlns="http://www.w3.org/2000/svg">
<rect x="0.200195" y="0.34021" width="49.5993" height="49.5993" rx="24.7997" fill="#FB5E05" fill-opacity="0.06"/>
<path d="M25 27.9833C26.3807 27.9833 27.5 26.8267 27.5 25.4C27.5 23.9732 26.3807 22.8167 25 22.8167C23.6193 22.8167 22.5 23.9732 22.5 25.4C22.5 26.8267 23.6193 27.9833 25 27.9833Z" stroke="#FB5E05" stroke-width="1.97" stroke-miterlimit="10" stroke-linecap="round" stroke-linejoin="round"/>
<path d="M31.5 22.8167V27.9833" stroke="#FB5E05" stroke-width="1.97" stroke-miterlimit="10" stroke-linecap="round" stroke-linejoin="round"/>
<path d="M18 35.7333C20.2091 35.7333 22 33.8828 22 31.6C22 29.3172 20.2091 27.4667 18 27.4667C15.7909 27.4667 14 29.3172 14 31.6C14 33.8828 15.7909 35.7333 18 35.7333Z" stroke="#FB5E05" stroke-width="1.97" stroke-miterlimit="10" stroke-linecap="round" stroke-linejoin="round"/>
<path d="M18.25 30.3083V31.2693C18.25 31.631 18.07 31.972 17.76 32.158L17 32.6333" stroke="#FB5E05" stroke-width="1.97" stroke-miterlimit="10" stroke-linecap="round" stroke-linejoin="round"/>
<path d="M15 28.7067V22.3C15 18.6834 17 17.1334 20 17.1334H30C33 17.1334 35 18.6834 35 22.3V28.5C35 32.1167 33 33.6667 30 33.6667H21.5" stroke="#FB5E05" stroke-width="1.97" stroke-miterlimit="10" stroke-linecap="round" stroke-linejoin="round"/>
</svg>
