<svg width="50" height="50" viewBox="0 0 50 50" fill="none" xmlns="http://www.w3.org/2000/svg">
<rect x="0.200195" width="49.5993" height="49.5993" rx="24.7997" fill="#0026EF" fill-opacity="0.08"/>
<path d="M34.1834 23.6766V19.2747C34.1834 15.1103 33.212 14.0667 29.306 14.0667H21.494C17.588 14.0667 16.6167 15.1103 16.6167 19.2747V30.91C16.6167 33.6586 18.1254 34.3097 19.9544 32.3463L19.9647 32.336C20.812 31.437 22.1037 31.5093 22.8374 32.491L23.881 33.886" stroke="#0026EF" stroke-width="1.97" stroke-linecap="round" stroke-linejoin="round"/>
<path d="M21.2666 19.2333H29.5333" stroke="#0026EF" stroke-width="1.97" stroke-linecap="round" stroke-linejoin="round"/>
<path d="M22.2998 23.3666H28.4998" stroke="#0026EF" stroke-width="1.97" stroke-linecap="round" stroke-linejoin="round"/>
<path d="M31.8178 27.2626L28.1598 30.9207C28.0152 31.0653 27.8808 31.334 27.8498 31.5303L27.6535 32.9253C27.5811 33.4317 27.9325 33.783 28.4388 33.7107L29.8338 33.5143C30.0302 33.4833 30.3092 33.349 30.4435 33.2043L34.1015 29.5463C34.7318 28.916 35.0315 28.1823 34.1015 27.2523C33.1818 26.3327 32.4481 26.6323 31.8178 27.2626Z" stroke="#0026EF" stroke-width="1.97" stroke-miterlimit="10" stroke-linecap="round" stroke-linejoin="round"/>
<path d="M31.2891 27.7897C31.5991 28.9057 32.4671 29.7737 33.5831 30.0837" stroke="#0026EF" stroke-width="1.97" stroke-miterlimit="10" stroke-linecap="round" stroke-linejoin="round"/>
</svg>
