<svg width="43" height="43" viewBox="0 0 43 43" fill="none" xmlns="http://www.w3.org/2000/svg">
<circle cx="21.5" cy="21.5" r="21.5" fill="white"/>
<path d="M25.9196 23C27.2375 23 28.5014 23.5268 29.4333 24.4645C30.3652 25.4021 30.8887 26.6739 30.8887 28V29C30.8887 29.5304 30.6793 30.0391 30.3065 30.4142C29.9338 30.7893 29.4282 31 28.9011 31H14.9876C14.4605 31 13.9549 30.7893 13.5822 30.4142C13.2094 30.0391 13 29.5304 13 29V28C13 26.6739 13.5235 25.4021 14.4554 24.4645C15.3873 23.5268 16.6512 23 17.9691 23H25.9196ZM31.3001 18.081C31.4786 17.8997 31.7191 17.794 31.9725 17.7853C32.2259 17.7767 32.473 17.8658 32.6632 18.0345C32.8534 18.2031 32.9724 18.4386 32.9958 18.6926C33.0191 18.9467 32.9451 19.2001 32.7889 19.401L32.7054 19.496L29.8949 22.324C29.7237 22.4962 29.4961 22.5996 29.2545 22.6149C29.013 22.6302 28.7742 22.5563 28.583 22.407L28.4896 22.324L27.0844 20.91C26.9042 20.7305 26.7991 20.4884 26.7905 20.2335C26.7819 19.9785 26.8705 19.7298 27.0381 19.5384C27.2057 19.347 27.4397 19.2273 27.6922 19.2038C27.9447 19.1803 28.1965 19.2548 28.3962 19.412L28.4896 19.496L29.1922 20.203L31.3001 18.081ZM21.9443 11C23.2622 11 24.5261 11.5268 25.458 12.4645C26.3899 13.4021 26.9134 14.6739 26.9134 16C26.9134 17.3261 26.3899 18.5979 25.458 19.5355C24.5261 20.4732 23.2622 21 21.9443 21C20.6265 21 19.3626 20.4732 18.4307 19.5355C17.4988 18.5979 16.9753 17.3261 16.9753 16C16.9753 14.6739 17.4988 13.4021 18.4307 12.4645C19.3626 11.5268 20.6265 11 21.9443 11Z" fill="#00AFEF"/>
</svg>
