<svg width="43" height="43" viewBox="0 0 43 43" fill="none" xmlns="http://www.w3.org/2000/svg">
<circle cx="21.5" cy="21.5" r="21.5" fill="white"/>
<path d="M27.4394 26.5188C26.9598 26.2723 26.3883 26.4674 26.1026 26.9295C25.7352 27.5457 25.1127 27.9462 24.1637 27.9462H19.1634C20.0104 26.9193 20.6941 25.5432 20.6941 23.8386C20.6941 23.4791 20.6635 23.13 20.6125 22.8116H23.1432C23.7045 22.8116 24.1637 22.3495 24.1637 21.7847C24.1637 21.2199 23.7045 20.7578 23.1432 20.7578H19.8982C19.0614 19.1353 18.0409 18.2932 18.0409 16.6502C18.0409 14.6683 19.6431 13.056 21.6125 13.056C22.8371 13.056 23.9188 13.6824 24.5617 14.6272C24.8372 15.038 25.3474 15.2331 25.8066 15.0379C26.4189 14.7812 26.623 14.0213 26.2454 13.4668C25.5701 12.4691 24.5947 11.7156 23.4624 11.3169C22.3302 10.9181 21.1007 10.8951 19.9546 11.2513C18.8084 11.6074 17.8058 12.3239 17.0941 13.2956C16.3823 14.2673 15.9989 15.443 16 16.6502C16 18.4781 16.8062 19.6282 17.5205 20.7578H17.0205C16.4592 20.7578 16 21.2199 16 21.7847C16 22.3495 16.4592 22.8116 17.0205 22.8116H18.5205C18.6022 23.13 18.6532 23.4689 18.6532 23.8386C18.6532 25.7897 17.3368 27.0322 16.5511 27.597C16.2041 27.8435 16 28.244 16 28.6753C16 29.4044 16.5919 30 17.3164 30H24.1637C25.7454 30 27.1741 29.2196 27.868 27.9462C28.1537 27.4225 27.9598 26.7755 27.4394 26.5188Z" fill="#2C2B6C"/>
</svg>
