<svg width="101" height="29" viewBox="0 0 101 29" fill="none" xmlns="http://www.w3.org/2000/svg">
<path d="M23.6941 27.9912H16.8995C16.5521 27.9912 16.3299 27.8535 16.0847 27.6078L13.0239 24.6578C12.5128 24.1467 11.4632 24.1467 10.9521 24.6578L8.002 27.6078C7.75634 27.8535 7.31318 27.9912 6.96585 27.9912C5.79967 27.9912 5.21569 26.5811 6.04038 25.7569L12.3554 19.4419C14.3647 17.4326 16.2952 17.4326 18.3046 19.4419L24.62 25.7569C25.4447 26.5816 24.8607 27.9912 23.6945 27.9912H23.6941Z" fill="#2B3C87"/>
<path d="M23.6789 28.0273H17.1057C16.7584 28.0273 16.3152 27.8897 16.0696 27.644L13.0088 24.6939C12.4977 24.1828 11.448 24.1828 10.9369 24.6939L7.98686 27.644C7.74121 27.8897 7.29804 28.0273 6.95071 28.0273C5.78454 28.0273 5.20055 26.6173 6.02524 25.7931L12.3402 19.4781C14.3495 17.4688 16.2801 17.4688 18.2894 19.4781L24.6049 25.7931C25.4295 26.6178 24.8456 28.0273 23.6794 28.0273H23.6789Z" fill="#2B3C87"/>
<path d="M16.6679 0.663565H23.2623C24.8716 0.663565 25.6756 2.61124 24.5351 3.74637L3.24517 24.9346C2.10734 26.067 0.168213 25.2612 0.168213 23.6559V17.1628C0.168213 16.6841 0.358076 16.2256 0.696861 15.8868L15.3924 1.19176C15.7307 0.853428 16.1896 0.663565 16.6679 0.663565Z" fill="#2B3C87"/>
<path d="M1.67178 0.5H8.51046C9.89079 0.5 10.5693 2.18043 9.57585 3.13874L2.59995 9.86764C1.61464 10.8179 -0.0275438 10.1007 0.000350802 8.73206L0.137574 2.00316C0.154671 1.16812 0.83629 0.5 1.67178 0.5Z" fill="#2B3C87"/>
<path d="M33.5422 5.1497H36.1355C36.4424 5.1497 36.6907 5.3985 36.6907 5.70489V11.2469C36.6907 11.7765 37.3611 12.0055 37.685 11.5866L42.4955 5.36521C42.6008 5.22934 42.7627 5.1497 42.9346 5.1497H45.792C46.2514 5.1497 46.5119 5.6752 46.2343 6.04098L40.0822 14.1358C39.9283 14.3383 39.9314 14.6199 40.0907 14.8188L46.5632 22.9096C46.8538 23.2731 46.5951 23.8117 46.1294 23.8117H43.2153C43.0471 23.8117 42.8883 23.7356 42.7825 23.6042L37.6783 17.2591C37.3498 16.8506 36.6903 17.0832 36.6903 17.6073V23.2565C36.6903 23.5633 36.4415 23.8117 36.1351 23.8117H33.5418C33.2349 23.8117 32.9866 23.5628 32.9866 23.2565V5.70534C32.9866 5.3985 33.2354 5.15015 33.5418 5.15015L33.5422 5.1497Z" fill="#2B3C87"/>
<path d="M48.1833 17.208C48.1833 13.2173 50.8248 10.4035 54.4421 10.4035C56.0447 10.4035 57.2482 10.9619 58.13 11.8995C58.1665 11.9382 58.2317 11.9116 58.2317 11.8585V11.1598C58.2317 10.853 58.4805 10.6046 58.7869 10.6046H61.265C61.5719 10.6046 61.8202 10.8534 61.8202 11.1598V23.2562C61.8202 23.563 61.5714 23.8114 61.265 23.8114H58.7869C58.4801 23.8114 58.2317 23.5626 58.2317 23.2562V22.5863C58.2317 22.5327 58.1665 22.5062 58.13 22.5453C57.2486 23.483 56.0447 24.0413 54.4421 24.0413C50.8248 24.0413 48.1833 21.1416 48.1833 17.2085V17.208ZM58.2308 17.3011C58.2664 15.5532 57.3044 14.19 55.75 13.8467C53.5774 13.3671 51.5842 15.133 51.6594 17.3565C51.7174 19.0783 52.7882 20.3808 54.4191 20.6152C56.4195 20.9027 58.1894 19.3213 58.2304 17.3011H58.2308Z" fill="#2B3C87"/>
<path d="M64.134 10.6049H66.6423C66.8713 10.6049 67.0769 10.7457 67.1597 10.959L69.7535 17.6384C69.9361 18.109 70.6015 18.1113 70.7874 17.6415L73.4293 10.9563C73.5129 10.7444 73.7176 10.6049 73.9458 10.6049H76.4536C76.8459 10.6049 77.1145 11.0008 76.9696 11.3653L72.1573 23.4616C72.0732 23.6731 71.869 23.8117 71.6413 23.8117H68.8937C68.6656 23.8117 68.4604 23.6722 68.3772 23.4598L63.6175 11.3635C63.474 10.999 63.7426 10.6049 64.134 10.6049Z" fill="#2B3C87"/>
<path d="M79.3223 5.1497H81.8283C82.1351 5.1497 82.3839 5.39895 82.3835 5.70579L82.3565 23.2569C82.356 23.5633 82.1077 23.8112 81.8013 23.8112H79.3223C79.0154 23.8112 78.7671 23.5624 78.7671 23.256V5.70489C78.7671 5.39805 79.0159 5.1497 79.3223 5.1497Z" fill="#2B3C87"/>
<path d="M84.6965 10.6048H87.1746C87.4815 10.6048 87.7298 10.8536 87.7298 11.16V11.4367C87.7298 11.9244 88.3102 12.1714 88.667 11.8394C89.5601 11.0079 90.6525 10.5724 91.7656 10.4442C92.0935 10.4064 92.3806 10.6664 92.3806 10.9967V13.2314C92.3806 13.5238 92.1543 13.7659 91.8627 13.7852C90.3623 13.8851 87.7294 14.4246 87.7294 17.7544V23.2568C87.7294 23.5636 87.4806 23.812 87.1742 23.812H84.6961C84.3892 23.812 84.1409 23.5632 84.1409 23.2568V11.1604C84.1409 10.8536 84.3897 10.6052 84.6961 10.6052L84.6965 10.6048Z" fill="#2B3C87"/>
<path d="M97.5695 23.8813C99.4642 23.8813 101 22.3454 101 20.4507C101 18.556 99.4642 17.0201 97.5695 17.0201C95.6748 17.0201 94.1389 18.556 94.1389 20.4507C94.1389 22.3454 95.6748 23.8813 97.5695 23.8813Z" fill="#2B3C87"/>
</svg>
