<svg width="43" height="43" viewBox="0 0 43 43" fill="none" xmlns="http://www.w3.org/2000/svg">
<circle cx="21.5" cy="21.5" r="21.5" fill="white"/>
<g clip-path="url(#clip0_1283_9120)">
<path d="M17.5 9C19.0913 9 20.6174 9.63214 21.7426 10.7574C22.8679 11.8826 23.5 13.4087 23.5 15C23.5 16.5913 22.8679 18.1174 21.7426 19.2426C20.6174 20.3679 19.0913 21 17.5 21C15.9087 21 14.3826 20.3679 13.2574 19.2426C12.1321 18.1174 11.5 16.5913 11.5 15C11.5 13.4087 12.1321 11.8826 13.2574 10.7574C14.3826 9.63214 15.9087 9 17.5 9ZM15.3578 23.25H19.6422C20.6078 23.25 21.5359 23.4141 22.3984 23.7141C22.1406 24.5156 22 25.3641 22 26.25C22 29.0391 23.3828 31.5047 25.5062 33H8.39219C7.62344 33 7 32.3766 7 31.6078C7 26.9906 10.7406 23.25 15.3578 23.25ZM23.5 26.25C23.5 24.4598 24.2112 22.7429 25.477 21.477C26.7429 20.2112 28.4598 19.5 30.25 19.5C32.0402 19.5 33.7571 20.2112 35.023 21.477C36.2888 22.7429 37 24.4598 37 26.25C37 28.0402 36.2888 29.7571 35.023 31.023C33.7571 32.2888 32.0402 33 30.25 33C28.4598 33 26.7429 32.2888 25.477 31.023C24.2112 29.7571 23.5 28.0402 23.5 26.25ZM30.25 22.5C29.8375 22.5 29.5 22.8375 29.5 23.25V26.25C29.5 26.6625 29.8375 27 30.25 27H32.5C32.9125 27 33.25 26.6625 33.25 26.25C33.25 25.8375 32.9125 25.5 32.5 25.5H31V23.25C31 22.8375 30.6625 22.5 30.25 22.5Z" fill="#FFCC00"/>
</g>
<defs>
<clipPath id="clip0_1283_9120">
<rect width="30" height="24" fill="white" transform="translate(7 9)"/>
</clipPath>
</defs>
</svg>
