<svg width="450" height="277" viewBox="0 0 450 277" fill="none" xmlns="http://www.w3.org/2000/svg">
<rect width="450" height="277" fill="#EEEEF1"/>
<path d="M200.833 176.5C198.542 176.5 196.579 175.683 194.946 174.05C193.313 172.417 192.497 170.456 192.5 168.167V109.833C192.5 107.542 193.317 105.579 194.95 103.946C196.583 102.313 198.544 101.497 200.833 101.5H259.167C261.458 101.5 263.421 102.317 265.054 103.95C266.688 105.583 267.503 107.544 267.5 109.833V168.167C267.5 170.458 266.683 172.421 265.05 174.054C263.417 175.688 261.456 176.503 259.167 176.5H200.833ZM200.833 168.167H259.167V109.833H200.833V168.167ZM209.167 159.833H250.833C251.667 159.833 252.292 159.451 252.708 158.688C253.125 157.924 253.056 157.194 252.5 156.5L241.042 141.188C240.625 140.632 240.069 140.354 239.375 140.354C238.681 140.354 238.125 140.632 237.708 141.188L226.875 155.667L219.167 145.354C218.75 144.799 218.194 144.521 217.5 144.521C216.806 144.521 216.25 144.799 215.833 145.354L207.5 156.5C206.944 157.194 206.875 157.924 207.292 158.688C207.708 159.451 208.333 159.833 209.167 159.833Z" fill="#6C6C73"/>
</svg>
