<svg width="24" height="26" viewBox="0 0 24 26" fill="none" xmlns="http://www.w3.org/2000/svg">
<g clip-path="url(#clip0_446_10944)">
<path d="M5.52253 22.4938L5.92001 19.9691L5.0346 19.9485H0.806641L3.74485 1.31831C3.7536 1.26139 3.78251 1.2095 3.82632 1.17211C3.87013 1.13473 3.92591 1.11432 3.9835 1.11463H11.1124C13.4791 1.11463 15.1124 1.60712 15.9651 2.57917C16.3649 3.03518 16.6195 3.51171 16.7426 4.03612C16.8718 4.58637 16.8741 5.24378 16.7479 6.0456L16.7388 6.10412V6.61789L17.1386 6.84437C17.4438 6.99899 17.7181 7.20814 17.948 7.4615C18.29 7.85139 18.5112 8.34692 18.6046 8.93441C18.7012 9.53862 18.6693 10.2576 18.5112 11.0716C18.3288 12.0079 18.0339 12.8234 17.6356 13.4907C17.2843 14.0885 16.8118 14.6062 16.2486 15.0107C15.7196 15.3862 15.0911 15.6712 14.3805 15.8536C13.6919 16.0329 12.9068 16.1234 12.0457 16.1234H11.4909C11.0942 16.1234 10.7089 16.2663 10.4064 16.5224C10.1043 16.7812 9.90394 17.1389 9.84093 17.5317L9.79913 17.7589L9.09687 22.2088L9.06495 22.3722C9.05659 22.4239 9.04215 22.4497 9.02087 22.4672C9.00026 22.4841 8.97454 22.4935 8.94791 22.4938H5.52253Z" fill="#253B80"/>
<path d="M17.5167 6.16345C17.4954 6.29949 17.4711 6.43858 17.4437 6.58146C16.5036 11.4083 13.2872 13.0758 9.17934 13.0758H7.08778C6.58541 13.0758 6.16208 13.4406 6.0838 13.9361L5.01294 20.7276L4.7097 22.6527C4.69762 22.7291 4.70223 22.8071 4.72322 22.8816C4.7442 22.956 4.78106 23.0249 4.83127 23.0837C4.88147 23.1425 4.94381 23.1898 5.01401 23.2221C5.08421 23.2545 5.1606 23.2713 5.23791 23.2714H8.94753C9.38682 23.2714 9.75999 22.9522 9.82915 22.519L9.86563 22.3305L10.5641 17.8981L10.6089 17.6549C10.6773 17.2201 11.0513 16.9009 11.4905 16.9009H12.0454C15.6395 16.9009 18.453 15.4417 19.2754 11.2191C19.6189 9.45507 19.441 7.98217 18.5321 6.94627C18.244 6.62582 17.8999 6.36055 17.5167 6.16345Z" fill="#179BD7"/>
<path d="M16.5334 5.77131C16.2332 5.68447 15.9279 5.6167 15.6191 5.56839C15.0091 5.47463 14.3925 5.42965 13.7753 5.43386H8.1877C7.97506 5.4337 7.76936 5.50962 7.60781 5.64789C7.44626 5.78617 7.33951 5.97767 7.30685 6.1878L6.11819 13.7165L6.08398 13.9361C6.12101 13.6965 6.2426 13.478 6.42675 13.3202C6.6109 13.1624 6.84545 13.0757 7.08796 13.0758H9.17952C13.2874 13.0758 16.5038 11.4076 17.4439 6.58149C17.472 6.4386 17.4956 6.29952 17.5169 6.16348C17.2688 6.03339 17.0102 5.92432 16.7439 5.83743C16.6741 5.81427 16.6039 5.79222 16.5334 5.77131Z" fill="#222D65"/>
<path d="M7.3067 6.18777C7.33909 5.97759 7.44578 5.78599 7.60742 5.64779C7.76905 5.50958 7.9749 5.43394 8.18756 5.4346H13.7752C14.4372 5.4346 15.055 5.47792 15.619 5.56912C16.0006 5.6291 16.3769 5.7188 16.7446 5.83741C17.022 5.92937 17.2796 6.03805 17.5175 6.16345C17.7972 4.3797 17.5152 3.1652 16.5508 2.06546C15.4875 0.854755 13.5685 0.336426 11.1129 0.336426H3.98392C3.48232 0.336426 3.05443 0.701232 2.97691 1.19752L0.00753152 20.0193C-0.00629933 20.1067 -0.00103716 20.196 0.022956 20.2812C0.0469492 20.3663 0.0891041 20.4453 0.146521 20.5126C0.203938 20.5799 0.275253 20.634 0.355563 20.6711C0.435872 20.7082 0.52327 20.7275 0.611743 20.7276H5.01298L6.11804 13.7165L7.3067 6.18777Z" fill="#253B80"/>
</g>
<defs>
<clipPath id="clip0_446_10944">
<rect width="24" height="25" fill="white" transform="translate(0 0.376587)"/>
</clipPath>
</defs>
</svg>
