<svg width="64" height="36" viewBox="0 0 64 36" fill="none" xmlns="http://www.w3.org/2000/svg">
<path fill-rule="evenodd" clip-rule="evenodd" d="M60.8323 18.2197C60.8323 14.1354 58.8591 10.9127 55.0879 10.9127C51.3007 10.9127 49.0093 14.1354 49.0093 18.1878C49.0093 22.9899 51.7144 25.4149 55.5971 25.4149C57.4907 25.4149 58.9228 24.9842 60.0048 24.3779V21.1871C58.9228 21.7296 57.6816 22.0646 56.1063 22.0646C54.5628 22.0646 53.1943 21.5222 53.0192 19.6396H60.8005C60.8005 19.4322 60.8323 18.6026 60.8323 18.2197ZM52.9715 16.704C52.9715 14.9012 54.0695 14.1514 55.072 14.1514C56.0426 14.1514 57.0769 14.9012 57.0769 16.704H52.9715Z" fill="#32325D"/>
<path fill-rule="evenodd" clip-rule="evenodd" d="M42.867 10.9127C41.3076 10.9127 40.3051 11.6466 39.7481 12.1571L39.5413 11.168H36.0405V29.7704L40.0187 28.9248L40.0346 24.4098C40.6074 24.8246 41.4508 25.4149 42.8511 25.4149C45.6994 25.4149 48.2932 23.1176 48.2932 18.0601C48.2773 13.4335 45.6517 10.9127 42.867 10.9127ZM41.9123 21.905C40.9734 21.905 40.4165 21.57 40.0346 21.1552L40.0187 15.2363C40.4324 14.7736 41.0052 14.4545 41.9123 14.4545C43.3603 14.4545 44.3628 16.0818 44.3628 18.1718C44.3628 20.3096 43.3762 21.905 41.9123 21.905Z" fill="#32325D"/>
<path fill-rule="evenodd" clip-rule="evenodd" d="M30.5664 9.9714L34.5605 9.10988V5.87122L30.5664 6.71678V9.9714Z" fill="#32325D"/>
<path d="M34.5605 11.1838H30.5664V25.1436H34.5605V11.1838Z" fill="#32325D"/>
<path fill-rule="evenodd" clip-rule="evenodd" d="M26.2864 12.3644L26.0318 11.1838H22.5947V25.1436H26.5729V15.6829C27.5117 14.4544 29.103 14.6778 29.5962 14.8533V11.1838C29.087 10.9924 27.2253 10.6414 26.2864 12.3644Z" fill="#32325D"/>
<path fill-rule="evenodd" clip-rule="evenodd" d="M18.3302 7.72192L14.4476 8.55153L14.4316 21.3307C14.4316 23.6919 16.1979 25.4309 18.553 25.4309C19.8578 25.4309 20.8126 25.1916 21.3377 24.9044V21.6657C20.8285 21.8731 18.3143 22.607 18.3143 20.2458V14.5822H21.3377V11.1839H18.3143L18.3302 7.72192Z" fill="#32325D"/>
<path fill-rule="evenodd" clip-rule="evenodd" d="M7.57275 15.2363C7.57275 14.6141 8.08195 14.3747 8.92532 14.3747C10.1347 14.3747 11.6623 14.7417 12.8716 15.3958V11.6466C11.5509 11.1201 10.2461 10.9127 8.92532 10.9127C5.69507 10.9127 3.54688 12.6038 3.54688 15.4277C3.54688 19.831 9.59364 19.129 9.59364 21.0276C9.59364 21.7615 8.95714 22.0008 8.06604 22.0008C6.7453 22.0008 5.05857 21.4583 3.72191 20.7245V24.5215C5.20178 25.1597 6.69756 25.4309 8.06604 25.4309C11.3759 25.4309 13.6513 23.7876 13.6513 20.9319C13.6354 16.1775 7.57275 17.0231 7.57275 15.2363Z" fill="#32325D"/>
</svg>
