<svg width="37" height="37" viewBox="0 0 37 37" fill="none" xmlns="http://www.w3.org/2000/svg">
<g clip-path="url(#clip0_446_10960)">
<path d="M18.5026 36.9309C28.4737 36.9309 36.5569 28.8478 36.5569 18.8766C36.5569 8.90548 28.4737 0.822292 18.5026 0.822292C8.53143 0.822292 0.448242 8.90548 0.448242 18.8766C0.448242 28.8478 8.53143 36.9309 18.5026 36.9309Z" fill="#1AB4D7"/>
<path d="M9.09013 18.8243L12.1712 15.7356C12.2734 15.6315 12.3304 15.4937 12.3304 15.3475C12.3304 15.0428 12.0827 14.7954 11.7781 14.7954C11.6297 14.7954 11.4906 14.8536 11.3856 14.9598C11.3853 14.9604 8.30729 18.0366 8.30729 18.0366L5.21518 14.9552C5.1107 14.8522 4.97225 14.7954 4.82545 14.7954C4.52116 14.7954 4.27344 15.0427 4.27344 15.347C4.27344 15.4955 4.33271 15.6348 4.4391 15.7398L7.51978 18.82L4.44069 21.9049C4.33246 22.0115 4.27344 22.1511 4.27344 22.3002C4.27344 22.6048 4.52116 22.8519 4.82545 22.8519C4.9725 22.8519 5.11107 22.7949 5.21518 22.6907L8.3025 19.6075L11.3781 22.6794C11.4872 22.7922 11.6279 22.8523 11.7781 22.8523C12.0824 22.8523 12.3301 22.6048 12.3301 22.3002C12.3301 22.1532 12.2731 22.0152 12.1695 21.911L9.09013 18.8243Z" fill="white"/>
<path d="M27.4067 18.8235C27.4067 19.3767 27.8565 19.8267 28.4104 19.8267C28.963 19.8267 29.4129 19.3767 29.4129 18.8235C29.4129 18.2702 28.963 17.8203 28.4104 17.8203C27.8565 17.8203 27.4067 18.2702 27.4067 18.8235Z" fill="white"/>
<path d="M25.5042 18.824C25.5042 17.2221 26.8073 15.9186 28.4094 15.9186C30.0107 15.9186 31.3142 17.2221 31.3142 18.824C31.3142 20.4255 30.0107 21.7284 28.4094 21.7284C26.8073 21.7284 25.5042 20.4255 25.5042 18.824ZM24.3613 18.824C24.3613 21.0557 26.1773 22.8715 28.4094 22.8715C30.6415 22.8715 32.4584 21.0557 32.4584 18.824C32.4584 16.5919 30.6415 14.7757 28.4094 14.7757C26.1773 14.7757 24.3613 16.5919 24.3613 18.824Z" fill="white"/>
<path d="M24.0736 14.845L23.9037 14.8445C23.3939 14.8445 22.9021 15.0053 22.4914 15.3218C22.4372 15.0741 22.2159 14.8878 21.9522 14.8878C21.6487 14.8878 21.4055 15.131 21.4048 15.4351C21.4048 15.4362 21.4066 22.2531 21.4066 22.2531C21.4074 22.5566 21.655 22.8033 21.9587 22.8033C22.2623 22.8033 22.5099 22.5566 22.5107 22.2524C22.5107 22.251 22.5109 18.0602 22.5109 18.0602C22.5109 16.6629 22.6387 16.0986 23.8356 15.9491C23.9462 15.9353 24.0665 15.9374 24.067 15.9374C24.3945 15.9262 24.6272 15.7011 24.6272 15.397C24.6272 15.0926 24.3788 14.845 24.0736 14.845Z" fill="white"/>
<path d="M13.4738 18.1576C13.4738 18.1425 13.475 18.1267 13.4757 18.1112C13.7962 16.8442 14.9437 15.9067 16.3102 15.9067C17.6933 15.9067 18.8512 16.8673 19.1554 18.1576H13.4738ZM20.2858 18.0533C20.048 16.927 19.4313 16.0019 18.4923 15.4077C17.1198 14.5363 15.3073 14.5845 13.9815 15.5273C12.9001 16.2966 12.2759 17.5551 12.2759 18.8515C12.2759 19.1766 12.3151 19.5047 12.3966 19.8277C12.805 21.434 14.1859 22.65 15.8323 22.8515C16.3208 22.9107 16.7964 22.8824 17.2888 22.7549C17.712 22.6519 18.1214 22.4803 18.4987 22.2385C18.8902 21.9868 19.2174 21.6549 19.5342 21.2575C19.5406 21.2502 19.547 21.2438 19.5534 21.2361C19.7733 20.9634 19.7325 20.5756 19.4909 20.3904C19.2871 20.2342 18.945 20.1709 18.6758 20.5157C18.6179 20.5981 18.5533 20.6829 18.4823 20.7678C18.2682 21.0043 18.0026 21.2335 17.6844 21.4112C17.2794 21.6276 16.8179 21.7512 16.3274 21.754C14.7216 21.7361 13.8624 20.6152 13.5567 19.8152C13.5034 19.6658 13.4622 19.5108 13.4335 19.3513C13.4298 19.3214 13.427 19.2926 13.4259 19.2661C13.7579 19.2661 19.1882 19.2652 19.1882 19.2652C19.9781 19.2486 20.4033 18.691 20.2858 18.0533Z" fill="white"/>
</g>
<defs>
<clipPath id="clip0_446_10960">
<rect width="36.2468" height="36.2468" fill="white" transform="translate(0.378906 0.753174)"/>
</clipPath>
</defs>
</svg>
